<mxfile host="app.diagrams.net" modified="2024-02-29T12:05:56.543Z" agent="Mozilla/5.0 (Windows NT 10.0; Win64; x64) AppleWebKit/537.36 (KHTML, like Gecko) Chrome/121.0.0.0 Safari/537.36 OPR/107.0.0.0" etag="z1aF9VX27Mzm8AbNn4Ni" version="23.1.1" type="github">
  <diagram id="kgpKYQtTHZ0yAKxKKP6v" name="Page-1">
    <mxGraphModel dx="1393" dy="1158" grid="1" gridSize="10" guides="1" tooltips="1" connect="1" arrows="1" fold="1" page="0" pageScale="1" pageWidth="850" pageHeight="1100" math="0" shadow="0">
      <root>
        <mxCell id="0" />
        <mxCell id="1" parent="0" />
        <mxCell id="3nuBFxr9cyL0pnOWT2aG-1" value="Joueur" style="shape=umlLifeline;perimeter=lifelinePerimeter;container=1;collapsible=0;recursiveResize=0;rounded=0;shadow=0;strokeWidth=1;" parent="1" vertex="1">
          <mxGeometry x="120" y="50" width="100" height="830" as="geometry" />
        </mxCell>
        <mxCell id="3nuBFxr9cyL0pnOWT2aG-5" value="Système" style="shape=umlLifeline;perimeter=lifelinePerimeter;container=0;collapsible=0;recursiveResize=0;rounded=0;shadow=0;strokeWidth=1;" parent="1" vertex="1">
          <mxGeometry x="500" y="50" width="140" height="780" as="geometry" />
        </mxCell>
        <mxCell id="WnYoMNKaXwerHSnEDr8r-4" value="" style="shape=umlActor;verticalLabelPosition=bottom;verticalAlign=top;html=1;outlineConnect=0;" parent="1" vertex="1">
          <mxGeometry x="150" y="-20" width="30" height="60" as="geometry" />
        </mxCell>
        <mxCell id="czbxqio23ZAVVT4ZoBKw-15" value="" style="group" parent="1" vertex="1" connectable="0">
          <mxGeometry x="180" y="160" width="390" height="40" as="geometry" />
        </mxCell>
        <mxCell id="czbxqio23ZAVVT4ZoBKw-16" value="" style="html=1;align=left;" parent="czbxqio23ZAVVT4ZoBKw-15" vertex="1">
          <mxGeometry x="-10" width="400" height="40" as="geometry" />
        </mxCell>
        <mxCell id="czbxqio23ZAVVT4ZoBKw-17" value="configurer la partie" style="text;align=center;fontStyle=0;verticalAlign=middle;spacingLeft=3;spacingRight=3;strokeColor=none;rotatable=0;points=[[0,0.5],[1,0.5]];portConstraint=eastwest;" parent="czbxqio23ZAVVT4ZoBKw-15" vertex="1">
          <mxGeometry x="141.20689655172413" y="17.11111111111111" width="107.58620689655172" height="5.777777777777779" as="geometry" />
        </mxCell>
        <mxCell id="czbxqio23ZAVVT4ZoBKw-18" value="ref" style="text;align=center;fontStyle=1;verticalAlign=middle;spacingLeft=3;spacingRight=3;strokeColor=none;rotatable=0;points=[[0,0.5],[1,0.5]];portConstraint=eastwest;" parent="czbxqio23ZAVVT4ZoBKw-15" vertex="1">
          <mxGeometry y="2.2222222222222223" width="107.58620689655172" height="5.777777777777779" as="geometry" />
        </mxCell>
        <mxCell id="czbxqio23ZAVVT4ZoBKw-20" value="" style="group" parent="1" vertex="1" connectable="0">
          <mxGeometry x="190" y="100" width="380" height="40" as="geometry" />
        </mxCell>
        <mxCell id="czbxqio23ZAVVT4ZoBKw-21" value="" style="html=1;align=left;" parent="czbxqio23ZAVVT4ZoBKw-20" vertex="1">
          <mxGeometry x="-22.352941176470583" width="402.35294117647055" height="40" as="geometry" />
        </mxCell>
        <mxCell id="czbxqio23ZAVVT4ZoBKw-22" value="s&#39;identifier" style="text;align=center;fontStyle=0;verticalAlign=middle;spacingLeft=3;spacingRight=3;strokeColor=none;rotatable=0;points=[[0,0.5],[1,0.5]];portConstraint=eastwest;" parent="czbxqio23ZAVVT4ZoBKw-20" vertex="1">
          <mxGeometry x="137.58620689655172" y="17.11111111111111" width="104.82758620689654" height="5.777777777777779" as="geometry" />
        </mxCell>
        <mxCell id="czbxqio23ZAVVT4ZoBKw-23" value="ref" style="text;align=center;fontStyle=1;verticalAlign=middle;spacingLeft=3;spacingRight=3;strokeColor=none;rotatable=0;points=[[0,0.5],[1,0.5]];portConstraint=eastwest;" parent="czbxqio23ZAVVT4ZoBKw-20" vertex="1">
          <mxGeometry y="2.2222222222222223" width="104.82758620689654" height="5.777777777777779" as="geometry" />
        </mxCell>
        <mxCell id="WnYoMNKaXwerHSnEDr8r-5" value="" style="html=1;shape=mxgraph.sysml.package;labelX=40;whiteSpace=wrap;align=center;fillColor=none;" parent="1" vertex="1">
          <mxGeometry x="120" y="345.89" width="530" height="470" as="geometry" />
        </mxCell>
        <mxCell id="WnYoMNKaXwerHSnEDr8r-14" value="" style="html=1;shape=mxgraph.sysml.package;labelX=40;whiteSpace=wrap;align=center;fillColor=none;" parent="WnYoMNKaXwerHSnEDr8r-5" vertex="1">
          <mxGeometry x="10.004313725490196" y="56.31206227489057" width="485.65666666666664" height="112.30672207599375" as="geometry" />
        </mxCell>
        <mxCell id="ZNe2NaBN33V6ErHDan2x-3" value="" style="html=1;points=[];perimeter=orthogonalPerimeter;" parent="WnYoMNKaXwerHSnEDr8r-5" vertex="1">
          <mxGeometry x="440" y="-70" width="10" height="540" as="geometry" />
        </mxCell>
        <mxCell id="WnYoMNKaXwerHSnEDr8r-7" value="tour &amp;lt; nbTour" style="text;html=1;strokeColor=none;fillColor=none;align=center;verticalAlign=middle;whiteSpace=wrap;rounded=0;" parent="WnYoMNKaXwerHSnEDr8r-5" vertex="1">
          <mxGeometry x="58.888888888888886" width="94.22222222222219" height="37.43557402533124" as="geometry" />
        </mxCell>
        <mxCell id="WnYoMNKaXwerHSnEDr8r-6" value="loop" style="html=1;align=left;verticalAlign=top;labelPosition=left;verticalLabelPosition=top;labelBackgroundColor=none;spacingLeft=5;spacingTop=-2;fontStyle=1;" parent="WnYoMNKaXwerHSnEDr8r-5" connectable="0" vertex="1">
          <mxGeometry as="geometry" />
        </mxCell>
        <mxCell id="WnYoMNKaXwerHSnEDr8r-15" value="loop" style="html=1;align=left;verticalAlign=top;labelPosition=left;verticalLabelPosition=top;labelBackgroundColor=none;spacingLeft=5;spacingTop=-2;fontStyle=1;" parent="WnYoMNKaXwerHSnEDr8r-5" connectable="0" vertex="1">
          <mxGeometry x="10.004313725490192" y="56.31206227489059" as="geometry" />
        </mxCell>
        <mxCell id="WnYoMNKaXwerHSnEDr8r-16" value="Appuyé ou temps&amp;lt;tempsMax" style="text;html=1;strokeColor=none;fillColor=none;align=center;verticalAlign=middle;whiteSpace=wrap;rounded=0;" parent="WnYoMNKaXwerHSnEDr8r-5" vertex="1">
          <mxGeometry x="44.15001416320064" y="62.731478928654724" width="183.47029629629628" height="15.314553010362786" as="geometry" />
        </mxCell>
        <mxCell id="WnYoMNKaXwerHSnEDr8r-26" value="Le joueur lance la partie" style="verticalAlign=bottom;html=1;endArrow=classic;edgeStyle=orthogonalEdgeStyle;rounded=0;exitX=0.5;exitY=0.222;exitDx=0;exitDy=0;exitPerimeter=0;endFill=1;entryX=0.479;entryY=0.304;entryDx=0;entryDy=0;entryPerimeter=0;" parent="1" target="3nuBFxr9cyL0pnOWT2aG-5" edge="1">
          <mxGeometry x="-0.0118" relative="1" as="geometry">
            <mxPoint x="170" y="303.55000000000007" as="sourcePoint" />
            <mxPoint x="350" y="285.89" as="targetPoint" />
            <Array as="points">
              <mxPoint x="170" y="286" />
              <mxPoint x="555" y="286" />
              <mxPoint x="555" y="287" />
            </Array>
            <mxPoint as="offset" />
          </mxGeometry>
        </mxCell>
        <mxCell id="WnYoMNKaXwerHSnEDr8r-25" style="edgeStyle=orthogonalEdgeStyle;rounded=0;orthogonalLoop=1;jettySize=auto;html=1;exitX=0.5;exitY=1;exitDx=0;exitDy=0;exitPerimeter=0;" parent="1" edge="1">
          <mxGeometry relative="1" as="geometry">
            <mxPoint x="375" y="745.89" as="sourcePoint" />
            <mxPoint x="375" y="745.89" as="targetPoint" />
          </mxGeometry>
        </mxCell>
        <mxCell id="WnYoMNKaXwerHSnEDr8r-30" value="Lancement de la partie" style="text;html=1;align=center;verticalAlign=middle;resizable=0;points=[];autosize=1;strokeColor=none;fillColor=none;" parent="1" vertex="1">
          <mxGeometry x="175" y="280.89" width="150" height="30" as="geometry" />
        </mxCell>
        <mxCell id="WnYoMNKaXwerHSnEDr8r-33" value="Fin de la partie" style="text;html=1;align=center;verticalAlign=middle;resizable=0;points=[];autosize=1;strokeColor=none;fillColor=none;" parent="1" vertex="1">
          <mxGeometry x="210" y="765.89" width="100" height="30" as="geometry" />
        </mxCell>
        <mxCell id="ZNe2NaBN33V6ErHDan2x-5" value="" style="html=1;points=[];perimeter=orthogonalPerimeter;" parent="1" vertex="1">
          <mxGeometry x="170" y="285.89" width="10" height="530" as="geometry" />
        </mxCell>
        <mxCell id="WnYoMNKaXwerHSnEDr8r-32" value="" style="endArrow=classic;html=1;rounded=0;entryX=0.47;entryY=0.982;entryDx=0;entryDy=0;entryPerimeter=0;exitX=0.5;exitY=0.983;exitDx=0;exitDy=0;exitPerimeter=0;" parent="1" source="3nuBFxr9cyL0pnOWT2aG-5" edge="1">
          <mxGeometry width="50" height="50" relative="1" as="geometry">
            <mxPoint x="560" y="815" as="sourcePoint" />
            <mxPoint x="167" y="815.09" as="targetPoint" />
            <Array as="points" />
          </mxGeometry>
        </mxCell>
        <mxCell id="WnYoMNKaXwerHSnEDr8r-28" value="" style="endArrow=block;html=1;rounded=0;exitX=0.486;exitY=0.328;exitDx=0;exitDy=0;exitPerimeter=0;dashed=1;endFill=1;" parent="1" source="3nuBFxr9cyL0pnOWT2aG-5" edge="1">
          <mxGeometry width="50" height="50" relative="1" as="geometry">
            <mxPoint x="357" y="306.66999999999985" as="sourcePoint" />
            <mxPoint x="169.5" y="305.89" as="targetPoint" />
            <Array as="points">
              <mxPoint x="200" y="305.89" />
            </Array>
          </mxGeometry>
        </mxCell>
        <mxCell id="xJt_3-qgVv-JPGMU0Qfo-1" value="" style="group" parent="1" vertex="1" connectable="0">
          <mxGeometry x="180" y="220" width="390" height="40" as="geometry" />
        </mxCell>
        <mxCell id="xJt_3-qgVv-JPGMU0Qfo-2" value="" style="html=1;align=left;" parent="xJt_3-qgVv-JPGMU0Qfo-1" vertex="1">
          <mxGeometry x="-10" width="400" height="40" as="geometry" />
        </mxCell>
        <mxCell id="xJt_3-qgVv-JPGMU0Qfo-4" value="ref" style="text;align=center;fontStyle=1;verticalAlign=middle;spacingLeft=3;spacingRight=3;strokeColor=none;rotatable=0;points=[[0,0.5],[1,0.5]];portConstraint=eastwest;" parent="xJt_3-qgVv-JPGMU0Qfo-1" vertex="1">
          <mxGeometry y="2.2222222222222223" width="107.5862068965517" height="5.777777777777779" as="geometry" />
        </mxCell>
        <mxCell id="xJt_3-qgVv-JPGMU0Qfo-3" value="appareiller les plots" style="text;align=center;fontStyle=0;verticalAlign=middle;spacingLeft=3;spacingRight=3;strokeColor=none;rotatable=0;points=[[0,0.5],[1,0.5]];portConstraint=eastwest;" parent="xJt_3-qgVv-JPGMU0Qfo-1" vertex="1">
          <mxGeometry x="146.66294117647053" y="12.110000000000014" width="107.5941176470588" height="15.78" as="geometry" />
        </mxCell>
        <mxCell id="q-I6Nqeb_Ti0k3V22-E3-2" value="trame Couleur + nbSecondes+ id du plot" style="verticalAlign=bottom;html=1;endArrow=classic;edgeStyle=orthogonalEdgeStyle;rounded=0;exitX=1;exitY=0.366;exitDx=0;exitDy=0;exitPerimeter=0;endFill=1;" parent="1" source="ZNe2NaBN33V6ErHDan2x-5" target="ZNe2NaBN33V6ErHDan2x-3" edge="1">
          <mxGeometry x="-0.1047" y="-20" relative="1" as="geometry">
            <mxPoint x="250" y="483.20000000000005" as="sourcePoint" />
            <mxPoint x="460" y="470" as="targetPoint" />
            <Array as="points">
              <mxPoint x="250" y="479.89" />
              <mxPoint x="250" y="469.89" />
            </Array>
            <mxPoint x="7" y="5" as="offset" />
          </mxGeometry>
        </mxCell>
      </root>
    </mxGraphModel>
  </diagram>
</mxfile>
